<svg id="Layer" enable-background="new 0 0 64 64" height="512" viewBox="0 0 64 64" width="512" xmlns="http://www.w3.org/2000/svg"><path d="m41 54h-9v-26c0-2.21 1.79-4 4-4h10c2.21 0 4 1.79 4 4v26z" fill="#ff7043"/><path d="m23 54h-9v-40c0-2.21 1.79-4 4-4h10c2.21 0 4 1.79 4 4v14 26z" fill="#4dd0e1"/><g fill="#012e52"><path d="m54 52h-2v-24c0-3.309-2.691-6-6-6h-10c-.702 0-1.373.128-2 .35v-8.35c0-3.309-2.691-6-6-6h-10c-3.309 0-6 2.691-6 6v38h-2c-1.104 0-2 .896-2 2s.896 2 2 2h44c1.104 0 2-.896 2-2s-.896-2-2-2zm-18-26h10c1.103 0 2 .897 2 2v24h-5v-2c0-1.104-.896-2-2-2s-2 .896-2 2v2h-5v-24c0-1.103.897-2 2-2zm-20-12c0-1.103.897-2 2-2h10c1.103 0 2 .897 2 2v14 24h-5v-2c0-1.104-.896-2-2-2s-2 .896-2 2v2h-5z"/><path d="m22 20h2c1.104 0 2-.896 2-2s-.896-2-2-2h-2c-1.104 0-2 .896-2 2s.896 2 2 2z"/><path d="m22 28h2c1.104 0 2-.896 2-2s-.896-2-2-2h-2c-1.104 0-2 .896-2 2s.896 2 2 2z"/><path d="m22 36h2c1.104 0 2-.896 2-2s-.896-2-2-2h-2c-1.104 0-2 .896-2 2s.896 2 2 2z"/><path d="m22 44h2c1.104 0 2-.896 2-2s-.896-2-2-2h-2c-1.104 0-2 .896-2 2s.896 2 2 2z"/><path d="m40 36h2c1.104 0 2-.896 2-2s-.896-2-2-2h-2c-1.104 0-2 .896-2 2s.896 2 2 2z"/><path d="m40 44h2c1.104 0 2-.896 2-2s-.896-2-2-2h-2c-1.104 0-2 .896-2 2s.896 2 2 2z"/></g></svg>