<svg height="384pt" viewBox="0 0 384 384" width="384pt" xmlns="http://www.w3.org/2000/svg"><path d="m368 208v160h-352v-160h136v8c0 11.039062 4.480469 21.039062 11.679688 28.320312 7.28125 7.199219 17.28125 11.679688 28.320312 11.679688 22.078125 0 40-17.921875 40-40v-8zm0 0" fill="#4dd0e1"/><path d="m368 96v112h-136v-48h-80v48h-136v-112zm0 0" fill="#ff7043"/><path d="m232 208v8c0 22.078125-17.921875 40-40 40-11.039062 0-21.039062-4.480469-28.320312-11.679688-7.199219-7.28125-11.679688-17.28125-11.679688-28.320312v-56h80zm0 0" fill="#e0f7fa"/><path d="m368 80h-96v-64c0-8.832031-7.167969-16-16-16h-128c-8.832031 0-16 7.167969-16 16v64h-96c-8.832031 0-16 7.167969-16 16v272c0 8.832031 7.167969 16 16 16h352c8.832031 0 16-7.167969 16-16v-272c0-8.832031-7.167969-16-16-16zm-224-48h96v48h-96zm208 80v80h-104v-32c0-8.832031-7.167969-16-16-16h-80c-8.832031 0-16 7.167969-16 16v32h-104v-80zm-184 64h48v40c0 13.230469-10.769531 24-24 24-6.40625 0-12.472656-2.503906-16.945312-6.929688-4.550782-4.597656-7.054688-10.664062-7.054688-17.070312zm-136 176v-128h104.632812c1.695313 11.863281 7.085938 22.894531 15.800782 31.695312 10.628906 10.511719 24.6875 16.304688 39.566406 16.304688 28.152344 0 51.457031-20.902344 55.359375-48h104.640625v128zm0 0" fill="#012e52"/></svg>