<?xml version="1.0" encoding="iso-8859-1"?>
<!-- Generator: Adobe Illustrator 19.0.0, SVG Export Plug-In . SVG Version: 6.00 Build 0)  -->
<svg version="1.1" id="Capa_1" xmlns="http://www.w3.org/2000/svg" xmlns:xlink="http://www.w3.org/1999/xlink" x="0px" y="0px"
	 viewBox="0 0 384 384" style="enable-background:new 0 0 384 384;" xml:space="preserve">
<polygon style="fill:#FF8A65;" points="144,192 16,320 16,64 "/>
<polygon style="fill:#E0F7FA;" points="368,64 368,320 240,192 "/>
<path style="fill:#4DD0E1;" d="M368,64L240,192l-20.64,20.64c-15.12,15.12-39.6,15.12-54.72,0L144,192L16,64H368z"/>
<path style="fill:#FF7043;" d="M368,320H16l128-128l20.64,20.64c15.12,15.12,39.6,15.12,54.72,0L240,192L368,320z"/>
<path style="fill:#012E52;" d="M0.72,324.504c0.16,0.544,0.288,1.088,0.504,1.616c0.224,0.536,0.528,1.024,0.808,1.536
	c0.224,0.408,0.4,0.832,0.664,1.224c1.168,1.752,2.68,3.264,4.432,4.432c0.392,0.264,0.824,0.448,1.24,0.672
	c0.504,0.272,0.984,0.576,1.52,0.8c0.528,0.216,1.08,0.344,1.624,0.504c0.456,0.136,0.896,0.312,1.368,0.408
	C13.904,335.888,14.952,336,16,336h352c1.048,0,2.096-0.112,3.136-0.312c0.472-0.096,0.912-0.272,1.368-0.408
	c0.544-0.16,1.096-0.288,1.624-0.504c0.528-0.224,1.016-0.52,1.52-0.8c0.416-0.224,0.84-0.408,1.24-0.672
	c1.752-1.176,3.264-2.68,4.432-4.432c0.264-0.392,0.44-0.816,0.664-1.224c0.28-0.504,0.584-0.992,0.808-1.536
	c0.216-0.528,0.344-1.072,0.504-1.616c0.136-0.456,0.312-0.896,0.408-1.368c0.184-1.032,0.296-2.08,0.296-3.128V64
	c0-0.336-0.08-0.656-0.096-0.984c-0.024-0.368-0.064-0.72-0.112-1.08c-0.176-1.384-0.48-2.72-0.992-3.968
	c-0.008-0.032-0.008-0.064-0.024-0.088c0-0.008-0.008-0.016-0.008-0.016c-0.552-1.32-1.312-2.512-2.176-3.624
	c-0.2-0.264-0.408-0.512-0.624-0.76c-0.912-1.04-1.912-1.992-3.064-2.768c-0.032-0.024-0.064-0.032-0.096-0.056
	c-1.12-0.736-2.352-1.288-3.64-1.728c-0.32-0.112-0.632-0.208-0.96-0.296C370.856,48.264,369.464,48,368,48H16
	c-1.464,0-2.856,0.264-4.208,0.632c-0.328,0.088-0.64,0.184-0.96,0.296c-1.288,0.44-2.528,0.992-3.64,1.728
	c-0.032,0.024-0.064,0.032-0.096,0.056c-1.152,0.776-2.144,1.728-3.064,2.768c-0.216,0.248-0.424,0.496-0.624,0.76
	c-0.864,1.112-1.632,2.304-2.176,3.624c0,0.008-0.008,0.016-0.008,0.016c-0.016,0.032-0.008,0.064-0.024,0.088
	c-0.512,1.248-0.808,2.584-0.992,3.968c-0.048,0.36-0.088,0.712-0.112,1.08C0.08,63.344,0,63.664,0,64v256
	c0,1.048,0.112,2.096,0.312,3.136C0.408,323.608,0.584,324.048,0.72,324.504z M262.624,192L352,102.624v178.752L262.624,192z
	 M230.672,223.952l9.328-9.328L329.376,304H54.624L144,214.624l9.328,9.328c10.664,10.664,24.664,16,38.672,16
	S220.008,234.616,230.672,223.952z M32,281.376V102.624L121.376,192L32,281.376z M329.368,80l-121.32,121.328
	c-8.848,8.84-23.24,8.84-32.096,0L54.632,80H329.368z"/>
<g>
</g>
<g>
</g>
<g>
</g>
<g>
</g>
<g>
</g>
<g>
</g>
<g>
</g>
<g>
</g>
<g>
</g>
<g>
</g>
<g>
</g>
<g>
</g>
<g>
</g>
<g>
</g>
<g>
</g>
</svg>
