<svg height="384pt" viewBox="0 -64 384 384" width="384pt" xmlns="http://www.w3.org/2000/svg"><path d="m216 112h152v72c0 8.800781-7.199219 16-16 16h-33.039062c-3.519532-13.839844-16.082032-24-30.960938-24s-27.441406 10.160156-30.960938 24h-130.078124c-3.519532-13.839844-16.082032-24-30.960938-24s-27.441406 10.160156-30.960938 24h-33.039062c-8.800781 0-16-7.199219-16-16v-72zm0 0" fill="#ff7043"/><path d="m318.960938 200c.71875 2.558594 1.039062 5.199219 1.039062 8 0 17.679688-14.320312 32-32 32s-32-14.320312-32-32c0-2.800781.320312-5.441406 1.039062-8 3.519532-13.839844 16.082032-24 30.960938-24s27.441406 10.160156 30.960938 24zm0 0" fill="#e0f7fa"/><path d="m248 16v96h-120v-96zm0 0" fill="#4dd0e1"/><g fill="#e0f7fa"><path d="m126.960938 200c.71875 2.558594 1.039062 5.199219 1.039062 8 0 17.679688-14.320312 32-32 32s-32-14.320312-32-32c0-2.800781.320312-5.441406 1.039062-8 3.519532-13.839844 16.082032-24 30.960938-24s27.441406 10.160156 30.960938 24zm0 0"/><path d="m248 16h76.464844c6.886718 0 13 4.40625 15.175781 10.945312l28.359375 85.054688h-120zm0 0"/><path d="m32 16h96v96h-112v-80c0-8.839844 7.160156-16 16-16zm0 0"/></g><path d="m383.910156 111.105469c-.03125-.554688-.078125-1.097657-.167968-1.640625-.085938-.570313-.222657-1.121094-.375-1.664063-.078126-.28125-.09375-.570312-.191407-.847656l-28.359375-85.160156c-4.449218-13.03125-16.648437-21.792969-30.335937-21.792969h-292.480469c-17.648438 0-32 14.351562-32 32v152c0 17.648438 14.351562 32 32 32h16.71875c3.824219 22.664062 23.539062 40 47.28125 40s43.449219-17.335938 47.28125-40h97.4375c3.824219 22.664062 23.539062 40 47.28125 40s43.449219-17.335938 47.28125-40h16.71875c17.648438 0 32-14.351562 32-32v-72c0-.304688-.070312-.59375-.089844-.894531zm-59.414062-79.089844 21.3125 63.984375h-81.808594v-63.984375zm-180.496094 63.984375v-63.992188l88 .007813v63.984375zm-32-63.992188v63.992188h-80v-64zm-16 191.992188c-8.824219 0-16-7.175781-16-16 0-1.40625.152344-2.617188.542969-4.046875 1.792969-7.042969 8.144531-11.953125 15.457031-11.953125s13.664062 4.910156 15.457031 11.953125c.03125.125.070313.246094.101563.375.289062 1.054687.441406 2.265625.441406 3.671875 0 8.824219-7.175781 16-16 16zm192 0c-8.824219 0-16-7.175781-16-16 0-1.40625.152344-2.617188.542969-4.046875 1.792969-7.042969 8.144531-11.953125 15.457031-11.953125s13.664062 4.910156 15.457031 11.953125c.03125.125.070313.246094.101563.375.289062 1.054687.441406 2.265625.441406 3.671875 0 8.824219-7.175781 16-16 16zm64-40h-22.601562c-8.390626-14.527344-23.925782-24-41.398438-24-17.542969 0-33.144531 9.550781-41.457031 24h-109.144531c-8.390626-14.527344-23.925782-24-41.398438-24-17.542969 0-33.144531 9.550781-41.457031 24h-22.542969v-56h168v16c0 8.832031 7.167969 16 16 16s16-7.167969 16-16v-16h120zm0 0" fill="#012e52"/></svg>