<svg height="384pt" viewBox="0 -72 384 384" width="384pt" xmlns="http://www.w3.org/2000/svg"><path d="m160 96h208v72c0 8.800781-7.199219 16-16 16h-33.039062c-3.519532-13.839844-16.082032-24-30.960938-24s-27.441406 10.160156-30.960938 24h-130.078124c-3.519532-13.839844-16.082032-24-30.960938-24s-27.441406 10.160156-30.960938 24h-33.039062c-8.800781 0-16-7.199219-16-16v-72zm0 0" fill="#ff7043"/><path d="m318.960938 184c.71875 2.558594 1.039062 5.199219 1.039062 8 0 17.679688-14.320312 32-32 32s-32-14.320312-32-32c0-2.800781.320312-5.441406 1.039062-8 3.519532-13.839844 16.082032-24 30.960938-24s27.441406 10.160156 30.960938 24zm0 0" fill="#e0f7fa"/><path d="m264.878906 33.679688 39.121094 62.320312h-144v-80h76.238281c12.082031 0 23.203125 6.878906 28.640625 17.679688zm0 0" fill="#4dd0e1"/><path d="m126.960938 184c.71875 2.558594 1.039062 5.199219 1.039062 8 0 17.679688-14.320312 32-32 32s-32-14.320312-32-32c0-2.800781.320312-5.441406 1.039062-8 3.519532-13.839844 16.082032-24 30.960938-24s27.441406 10.160156 30.960938 24zm0 0" fill="#e0f7fa"/><path d="m368 80h-55.152344l-34.054687-54.257812c-8.242188-15.664063-24.847657-25.742188-42.554688-25.742188h-76.238281c-8.832031 0-16 7.167969-16 16v64h-128c-8.832031 0-16 7.167969-16 16v72c0 17.648438 14.351562 32 32 32h16.71875c3.824219 22.664062 23.539062 40 47.28125 40s43.449219-17.335938 47.28125-40h97.4375c3.824219 22.664062 23.539062 40 47.28125 40s43.449219-17.335938 47.28125-40h16.71875c17.648438 0 32-14.351562 32-32v-72c0-8.832031-7.167969-16-16-16zm-131.761719-48c6 0 11.640625 3.488281 14.347657 8.871094.222656.449218.476562.890625.742187 1.3125l23.734375 37.816406h-99.0625v-48zm-140.238281 176c-8.824219 0-16-7.175781-16-16 0-1.40625.144531-2.617188.542969-4.054688 1.792969-7.035156 8.144531-11.945312 15.457031-11.945312s13.664062 4.910156 15.457031 11.945312c.03125.125.0625.253907.101563.382813.296875 1.054687.441406 2.265625.441406 3.671875 0 8.824219-7.175781 16-16 16zm192 0c-8.824219 0-16-7.175781-16-16 0-1.40625.144531-2.617188.542969-4.054688 1.792969-7.035156 8.144531-11.945312 15.457031-11.945312s13.664062 4.910156 15.457031 11.945312c.03125.125.0625.253907.101563.382813.296875 1.054687.441406 2.265625.441406 3.671875 0 8.824219-7.175781 16-16 16zm64-40h-22.601562c-8.390626-14.527344-23.925782-24-41.398438-24-17.550781 0-33.152344 9.558594-41.464844 24h-109.136718c-8.390626-14.527344-23.925782-24-41.398438-24-17.550781 0-33.152344 9.558594-41.464844 24h-22.535156v-56h112v16c0 8.832031 7.167969 16 16 16s16-7.167969 16-16v-16h127.984375.03125.03125 47.953125zm0 0" fill="#012e52"/></svg>